<svg id="Layer_1" data-name="Layer 1" xmlns="http://www.w3.org/2000/svg" viewBox="0 0 825.33 934.97">
  <title>pink cupcake white border</title>
  <g>
    <path d="M828.14,387.17s-16.53-162.44-163-150.79c0,0,17.65-101.54-70.54-144.2,0,0-117.24-44.77-94.95-87.62,0,0-139.12,10.65-162.07,93.79,0,0-133.51-9.25-173.67,139.65,0,0-82.85,20.86-127.11,92.94-30.07,49-64.49,171.33,22.75,232.74l70.95,375.85,526.11-1.82L734.28,522.5C789.19,503.9,837.74,465.57,828.14,387.17Z" transform="translate(-4.02 -4.56)" fill="#f14668"/>
    <path d="M476.43,30.72c.28.87.59,1.75.92,2.63,15.95,42,90.71,73,108.1,79.72,70.35,34.7,57.77,116,57.21,119.41l-5,28.92,29.26-2.33c4.39-.35,8.75-.53,13-.53,110.39,0,125.09,125.64,125.7,131.4,6.68,54.52-19,90.83-78.56,111l-12.62,4.28-2.45,13.09L637.65,915,149.31,916.7,81.86,559.46l-1.71-9.07-7.55-5.32C-.86,493.36,30.54,384.55,56.14,342.85c38.65-62.94,112.59-82.6,113.28-82.78l12.94-3.26,3.48-12.89C216.6,129.86,306.21,121,332.94,121c1.75,0,2.83,0,3,0l18.56,1.29,5-17.94c12.36-44.78,75.27-65.85,117-73.68M499.6,4.56S360.48,15.21,337.53,98.35c0,0-1.64-.12-4.59-.12-23.77,0-133.36,7.32-169.08,139.77,0,0-82.85,20.86-127.11,92.94-30.07,49-64.49,171.33,22.75,232.74l70.95,375.85,526.1-1.82L734.28,522.5c54.91-18.6,103.46-56.93,93.86-135.33,0,0-15.43-151.39-148.31-151.39-4.77,0-9.67.19-14.74.6,0,0,17.65-101.54-70.54-144.2,0,0-117.24-44.77-94.95-87.62Z" transform="translate(-4.02 -4.56)" fill="#fff"/>
  </g>
</svg>
